<svg width="137" height="40" viewBox="0 0 137 40" fill="none" xmlns="http://www.w3.org/2000/svg">
<path opacity="0.4" d="M20.0007 36.6834C29.2054 36.6834 36.6673 29.2215 36.6673 20.0168C36.6673 10.812 29.2054 3.3501 20.0007 3.3501C10.7959 3.3501 3.33398 10.812 3.33398 20.0168C3.33398 29.2215 10.7959 36.6834 20.0007 36.6834Z" fill="#515151"/>
<path d="M20 11.5667C16.55 11.5667 13.75 14.3666 13.75 17.8166C13.75 21.2 16.4 23.95 19.9167 24.05C19.9667 24.05 20.0333 24.05 20.0667 24.05C20.1 24.05 20.15 24.05 20.1833 24.05C20.2 24.05 20.2167 24.05 20.2167 24.05C23.5833 23.9333 26.2333 21.2 26.25 17.8166C26.25 14.3666 23.45 11.5667 20 11.5667Z" fill="#515151"/>
<path d="M31.2992 32.2666C28.3326 34.9999 24.3659 36.6832 19.9992 36.6832C15.6326 36.6832 11.6659 34.9999 8.69922 32.2666C9.09922 30.7499 10.1826 29.3666 11.7659 28.2999C16.3159 25.2666 23.7159 25.2666 28.2326 28.2999C29.8326 29.3666 30.8992 30.7499 31.2992 32.2666Z" fill="#515151"/>
<path d="M58.016 14.94V25.5H56.736V14.94H58.016ZM51.008 14.94V25.5H49.728V14.94H51.008ZM57.328 19.548V20.748H50.4V19.548H57.328ZM61.878 15.964C61.59 15.964 61.3553 15.8787 61.174 15.708C61.0033 15.5267 60.918 15.292 60.918 15.004C60.918 14.716 61.0033 14.4867 61.174 14.316C61.3553 14.1347 61.59 14.044 61.878 14.044C62.166 14.044 62.3953 14.1347 62.566 14.316C62.7473 14.4867 62.838 14.716 62.838 15.004C62.838 15.292 62.7473 15.5267 62.566 15.708C62.3953 15.8787 62.166 15.964 61.878 15.964ZM62.518 17.5V25.5H61.238V17.5H62.518ZM79.2611 14.94V21.564C79.2611 22.9187 78.9038 23.9427 78.1891 24.636C77.4745 25.3187 76.4505 25.66 75.1171 25.66C73.7945 25.66 72.7705 25.3187 72.0451 24.636C71.3305 23.9427 70.9731 22.9187 70.9731 21.564V14.94H72.2531V21.244C72.2531 22.3427 72.4825 23.1533 72.9411 23.676C73.4105 24.1987 74.1358 24.46 75.1171 24.46C76.0985 24.46 76.8185 24.1987 77.2771 23.676C77.7465 23.1533 77.9811 22.3427 77.9811 21.244V14.94H79.2611ZM85.0086 25.66C84.23 25.66 83.51 25.4947 82.8486 25.164C82.198 24.8333 81.6966 24.364 81.3446 23.756L82.4326 22.972C82.6673 23.4627 83.0086 23.8467 83.4566 24.124C83.9153 24.4013 84.4646 24.54 85.1046 24.54C85.67 24.54 86.1126 24.4333 86.4326 24.22C86.7526 23.996 86.9126 23.708 86.9126 23.356C86.9126 23.132 86.838 22.9293 86.6886 22.748C86.55 22.556 86.278 22.4173 85.8726 22.332L83.9526 21.932C83.174 21.772 82.614 21.5053 82.2726 21.132C81.942 20.7587 81.7766 20.2947 81.7766 19.74C81.7766 19.3027 81.8993 18.9027 82.1446 18.54C82.4006 18.1773 82.758 17.8893 83.2166 17.676C83.686 17.452 84.2353 17.34 84.8646 17.34C85.654 17.34 86.3206 17.4947 86.8646 17.804C87.4086 18.1133 87.814 18.5507 88.0806 19.116L87.0086 19.82C86.8273 19.3507 86.534 19.0093 86.1286 18.796C85.7233 18.572 85.302 18.46 84.8646 18.46C84.4806 18.46 84.15 18.5133 83.8726 18.62C83.606 18.7267 83.398 18.876 83.2486 19.068C83.11 19.2493 83.0406 19.4573 83.0406 19.692C83.0406 19.9267 83.1206 20.1453 83.2806 20.348C83.4406 20.54 83.7393 20.6787 84.1766 20.764L86.1766 21.18C86.9233 21.3293 87.446 21.5747 87.7446 21.916C88.0433 22.2573 88.1926 22.6733 88.1926 23.164C88.1926 23.6653 88.0593 24.108 87.7926 24.492C87.526 24.8653 87.1526 25.1533 86.6726 25.356C86.1926 25.5587 85.638 25.66 85.0086 25.66ZM93.9101 25.66C93.1528 25.66 92.4755 25.4947 91.8781 25.164C91.2915 24.8333 90.8328 24.3587 90.5021 23.74C90.1715 23.1107 90.0061 22.364 90.0061 21.5C90.0061 20.636 90.1715 19.8947 90.5021 19.276C90.8328 18.6467 91.2861 18.1667 91.8621 17.836C92.4381 17.5053 93.0941 17.34 93.8301 17.34C94.5768 17.34 95.2115 17.5 95.7341 17.82C96.2675 18.14 96.6728 18.5773 96.9501 19.132C97.2275 19.676 97.3661 20.2893 97.3661 20.972C97.3661 21.1533 97.3608 21.3187 97.3501 21.468C97.3395 21.6173 97.3235 21.7507 97.3021 21.868H90.8381V20.732H96.7421L96.0861 20.86C96.0861 20.092 95.8728 19.5 95.4461 19.084C95.0301 18.668 94.4808 18.46 93.7981 18.46C93.2755 18.46 92.8221 18.5827 92.4381 18.828C92.0648 19.0627 91.7715 19.4093 91.5581 19.868C91.3555 20.316 91.2541 20.86 91.2541 21.5C91.2541 22.1293 91.3608 22.6733 91.5741 23.132C91.7875 23.5907 92.0861 23.9427 92.4701 24.188C92.8648 24.4227 93.3341 24.54 93.8781 24.54C94.4648 24.54 94.9395 24.428 95.3021 24.204C95.6755 23.98 95.9741 23.676 96.1981 23.292L97.2061 23.884C97.0035 24.2467 96.7421 24.5613 96.4221 24.828C96.1128 25.0947 95.7448 25.3027 95.3181 25.452C94.9021 25.5907 94.4328 25.66 93.9101 25.66ZM99.8005 25.5V17.5H100.841L101.017 18.812C101.241 18.3213 101.566 17.9533 101.993 17.708C102.43 17.4627 102.958 17.34 103.577 17.34C103.715 17.34 103.865 17.3507 104.025 17.372C104.195 17.3933 104.339 17.436 104.457 17.5L104.233 18.668C104.115 18.6253 103.987 18.5933 103.849 18.572C103.71 18.5507 103.513 18.54 103.257 18.54C102.926 18.54 102.59 18.636 102.249 18.828C101.918 19.02 101.641 19.3133 101.417 19.708C101.193 20.092 101.081 20.5827 101.081 21.18V25.5H99.8005Z" fill="#141414"/>
<path d="M132.92 16.95L126.4 23.47C125.63 24.24 124.37 24.24 123.6 23.47L117.08 16.95" stroke="black" stroke-miterlimit="10" stroke-linecap="round" stroke-linejoin="round"/>
</svg>
